{"title":"Anne Clark - The Smallest Acts of Kindness - FLAC","uid":4760582,"size":370692255,"categoryP":"audio","categoryS":"flac","magnet":"?xt=urn:btih:333732588b5c77ff886ec7e98d47477cc544a3b8&amp;dn=Anne+Clark+-+The+Smallest+Acts+of+Kindness+-+FLAC&amp;tr=udp%3A%2F%2Ftracker.openbittorrent.com%3A80&amp;tr=udp%3A%2F%2Fopen.demonii.com%3A1337&amp;tr=udp%3A%2F%2Ftracker.coppersurfer.tk%3A6969&amp;tr=udp%3A%2F%2Fexodus.desync.com%3A6969","seeders":2,"leechers":0,"uploader":"chemiko","files":14,"time":1236683289,"description":"Style: New Wave / 80ies Electro\nripped from original cd, then \nflacced for you ;-)\n\n\n\nREM GENRE &quot;New Wave&quot;\nREM DATE 2008\nREM DISCID B60D1D0C\nREM COMMENT &quot;ExactAudioCopy v0.99pb4&quot;\nPERFORMER &quot;Anne Clark&quot;\nTITLE &quot;The Smallest Acts of Kindness&quot;\nFILE &quot;Nothing Going On.wav&quot; WAVE\n  TRACK 01 AUDIO\n    TITLE &quot;Nothing Going On&quot;\n    PERFORMER &quot;Anne Clark&quot;\n    INDEX 01 00:00:00\n  TRACK 02 AUDIO\n    TITLE &quot;The Hardest Heart&quot;\n    PERFORMER &quot;Anne Clark&quot;\n    INDEX 00 05:32:10\nFILE &quot;The Hardest Heart.wav&quot; WAVE\n    INDEX 01 00:00:00\n  TRACK 03 AUDIO\n    TITLE &quot;Waiting&quot;\n    PERFORMER &quot;Anne Clark&quot;\n    INDEX 00 03:45:24\nFILE &quot;Waiting.wav&quot; WAVE\n    INDEX 01 00:00:00\n  TRACK 04 AUDIO\n    TITLE &quot;Psalm&quot;\n    PERFORMER &quot;Anne Clark&quot;\n    INDEX 00 03:30:67\nFILE &quot;Psalm.wav&quot; WAVE\n    INDEX 01 00:00:00\n  TRACK 05 AUDIO\n    TITLE &quot;Know&quot;\n    PERFORMER &quot;Anne Clark&quot;\n    INDEX 00 05:44:16\nFILE &quot;Know.wav&quot; WAVE\n    INDEX 01 00:00:00\nFILE &quot;As Soon As I Get Home.wav&quot; WAVE\n  TRACK 06 AUDIO\n    TITLE &quot;As Soon As I Get Home&quot;\n    PERFORMER &quot;Anne Clark&quot;\n    INDEX 01 00:00:00\n  TRACK 07 AUDIO\n    TITLE &quot;Off Grid&quot;\n    PERFORMER &quot;Anne Clark&quot;\n    INDEX 00 07:29:31\nFILE &quot;Off Grid.wav&quot; WAVE\n    INDEX 01 00:00:00\nFILE &quot;Boy Racing.wav&quot; WAVE\n  TRACK 08 AUDIO\n    TITLE &quot;Boy Racing&quot;\n    PERFORMER &quot;Anne Clark&quot;\n    INDEX 01 00:00:00\nFILE &quot;Zest.wav&quot; WAVE\n  TRACK 09 AUDIO\n    TITLE &quot;Zest&quot;\n    PERFORMER &quot;Anne Clark&quot;\n    INDEX 01 00:00:00\n  TRACK 10 AUDIO\n    TITLE &quot;Prayer Before Birth&quot;\n    PERFORMER &quot;Anne Clark&quot;\n    INDEX 00 03:08:63\nFILE &quot;Prayer Before Birth.wav&quot; WAVE\n    INDEX 01 00:00:00\n  TRACK 11 AUDIO\n    TITLE &quot;Full Moon&quot;\n    PERFORMER &quot;Anne Clark&quot;\n    INDEX 00 03:40:64\nFILE &quot;Full Moon.wav&quot; WAVE\n    INDEX 01 00:00:00\n  TRACK 12 AUDIO\n    TITLE &quot;If&quot;\n    PERFORMER &quot;Anne Clark&quot;\n    INDEX 00 05:13:18\nFILE &quot;If.wav&quot; WAVE\n    INDEX 01 00:00:00\n","torrent":{"xt":"urn:btih:333732588b5c77ff886ec7e98d47477cc544a3b8","amp;dn":"Anne+Clark+-+The+Smallest+Acts+of+Kindness+-+FLAC","amp;tr":["udp%3A%2F%2Ftracker.openbittorrent.com%3A80","udp%3A%2F%2Fopen.demonii.com%3A1337","udp%3A%2F%2Ftracker.coppersurfer.tk%3A6969","udp%3A%2F%2Fexodus.desync.com%3A6969"],"infoHash":"333732588b5c77ff886ec7e98d47477cc544a3b8","infoHashBuffer":{"type":"Buffer","data":[51,55,50,88,139,92,119,255,136,110,199,233,141,71,71,124,197,68,163,184]},"announce":[],"urlList":[]}}